<?xml version="1.0" encoding="UTF-8" standalone="no"?>
<svg
   xmlns:dc="http://purl.org/dc/elements/1.1/"
   xmlns:cc="http://creativecommons.org/ns#"
   xmlns:rdf="http://www.w3.org/1999/02/22-rdf-syntax-ns#"
   xmlns:svg="http://www.w3.org/2000/svg"
   xmlns="http://www.w3.org/2000/svg"
   xmlns:sodipodi="http://sodipodi.sourceforge.net/DTD/sodipodi-0.dtd"
   xmlns:inkscape="http://www.inkscape.org/namespaces/inkscape"
   version="1.1"
   x="0px"
   y="0px"
   viewBox="0 0 67.609001 79.810997"
   enable-background="new 0 0 100 100"
   xml:space="preserve"
   id="svg928"
   sodipodi:docname="lamp.svg"
   width="67.609001"
   height="79.810997"
   inkscape:version="1.0.2 (e86c870879, 2021-01-15, custom)"><metadata
     id="metadata934"><rdf:RDF><cc:Work
         rdf:about=""><dc:format>image/svg+xml</dc:format><dc:type
           rdf:resource="http://purl.org/dc/dcmitype/StillImage" /></cc:Work></rdf:RDF></metadata><defs
     id="defs932" /><sodipodi:namedview
     pagecolor="#ffffff"
     bordercolor="#666666"
     borderopacity="1"
     objecttolerance="10"
     gridtolerance="10"
     guidetolerance="10"
     inkscape:pageopacity="0"
     inkscape:pageshadow="2"
     inkscape:window-width="1318"
     inkscape:window-height="960"
     id="namedview930"
     showgrid="false"
     inkscape:zoom="5.376"
     inkscape:cx="34.858"
     inkscape:cy="52.311"
     inkscape:window-x="0"
     inkscape:window-y="32"
     inkscape:window-maximized="0"
     inkscape:current-layer="svg928" /><g
     id="g922"
     transform="translate(-15.142,-10.189)"><path
       d="m 48.617,10.189 c -18.905,0 -33.475,14.191 -33.475,33.097 0,14.465 8.216,24.943 20.898,29.956 L 36.419,90 h 3.783 L 39.963,77.401 c 2.047,-0.414 5.265,-1.137 8.277,-2.121 0.684,-0.224 5.461,-3.167 7.539,-4.456 0.395,-0.088 0.799,-0.18 1.222,-0.281 V 77.22 C 53.282,77.228 47.1,77.576 44.687,78.84 43.868,79.269 40.674,81 40.674,81 H 57 v 0.759 c -3.719,0.008 -9.901,0.086 -12.314,1.35 C 43.868,83.538 40.674,85 40.674,85 H 57 v 1.298 C 53.281,86.306 47.099,86.615 44.686,87.88 43.868,88.308 40.674,90 40.674,90 H 57 61 V 76.268 C 74,71.255 82.751,58.886 82.751,44.421 82.751,25.516 67.523,10.189 48.617,10.189 Z M 35.303,31.245 c -0.561,0.701 -0.957,1.497 -1.397,2.211 -0.335,0.78 -0.744,1.48 -0.958,2.222 -0.126,0.359 -0.248,0.709 -0.367,1.047 -0.083,0.348 -0.164,0.684 -0.241,1.007 -0.185,0.649 -0.239,1.21 -0.302,1.7 -0.035,0.244 -0.067,0.472 -0.098,0.684 -0.012,0.258 -0.022,0.496 -0.032,0.71 -0.037,0.861 -0.059,1.353 -0.059,1.353 l -4.962,-0.613 c 0,0 0.099,-0.482 0.272,-1.326 0.044,-0.212 0.092,-0.446 0.145,-0.701 0.085,-0.293 0.176,-0.611 0.274,-0.95 0.195,-0.679 0.416,-1.44 0.753,-2.172 0.158,-0.375 0.323,-0.765 0.494,-1.169 0.208,-0.386 0.422,-0.784 0.643,-1.194 0.405,-0.833 1.017,-1.608 1.561,-2.442 0.649,-0.768 1.258,-1.596 2.029,-2.304 0.708,-0.762 1.554,-1.4 2.357,-2.063 0.873,-0.581 1.712,-1.192 2.631,-1.642 0.875,-0.519 1.826,-0.853 2.701,-1.233 0.926,-0.267 1.782,-0.61 2.649,-0.745 0.425,-0.087 0.839,-0.171 1.238,-0.252 0.405,-0.042 0.797,-0.163 1.172,-0.203 0.745,-0.105 1.435,-0.17 2.042,-0.17 0.302,0 0.585,0 0.847,0 0.261,0 0.5,0.129 0.716,0.151 0.858,0.087 1.349,0.177 1.349,0.177 0,0 -0.491,0.048 -1.35,0.098 -0.213,0.013 -0.449,0.037 -0.705,0.052 -0.254,0.041 -0.53,0.09 -0.824,0.137 -0.586,0.091 -1.245,0.187 -1.941,0.401 -0.348,0.093 -0.711,0.192 -1.086,0.293 -0.363,0.137 -0.738,0.279 -1.124,0.424 -0.781,0.25 -1.531,0.706 -2.33,1.076 -0.748,0.484 -1.551,0.911 -2.261,1.507 -0.754,0.527 -1.41,1.198 -2.089,1.818 -0.609,0.701 -1.249,1.357 -1.747,2.111 z m 19.555,23.187 c -1.561,3.482 -4.539,14.575 -4.539,14.575 0,0 1.165,-13.044 2.837,-17.021 0.591,-1.403 3.594,-4.917 3.594,-4.917 0,0 -3.227,1.77 -4.35,1.513 -1.172,-0.269 -3.404,-3.405 -3.404,-3.405 0,0 -3.585,4.434 -5.295,4.35 -2.071,-0.101 -5.863,-5.863 -5.863,-5.863 0,0 3.947,2.973 5.484,2.837 1.781,-0.158 5.674,-4.35 5.674,-4.35 0,0 3.128,3.259 4.539,3.404 2.545,0.261 9.267,-4.35 9.267,-4.35 0,0 -6.366,9.707 -7.944,13.227 z"
       id="path920" /></g></svg>
